# File created by Blade
# Date/Time:  Tue Jan 27 19:05:11 2015
#---------------------------------------------------------
:version 1.10
:name HOM
:units
  mass 1.0
  length 1.000000
  angle deg
:documentation
     Acclaim Skeleton File
:root
   axis xyz
   order TX TY TZ RX RY RZ
   position 0.000000 0.000000 0.000000
   orientation 0 0 0
:bonedata
   begin
      id 1
      name Spine_dum
      direction 0.000000 1.000000 0.000000
      length 5.195262
      axis 0.0 0.0 0.0 xyz
   end
   begin
      id 2
      name LeftUpLeg_dum
      direction 1.000000 0.000000 0.000000
      length 3.351363
      axis 0.0 0.0 0.0 xyz
   end
   begin
      id 3
      name RightUpLeg_dum
      direction -1.000000 0.000000 0.000000
      length 3.351363
      axis 0.0 0.0 0.0 xyz
   end
   begin
      id 4
      name Spine
      direction 0.000000 1.000000 0.000000
      length 0.000000
      axis 0.0 0.0 0.0 xyz
      dof rx ry rz
   end
   begin
      id 5
      name Spine_dum1
      direction 0.000000 1.000000 0.000000
      length 15.653875
      axis 0.0 0.0 0.0 xyz
   end
   begin
      id 6
      name Spine_dum2
      direction 0.000000 1.000000 0.000000
      length 10.329768
      axis 0.0 0.0 0.0 xyz
   end
   begin
      id 7
      name Spine_dum3
      direction 0.000000 1.000000 0.000000
      length 10.329768
      axis 0.0 0.0 0.0 xyz
   end
   begin
      id 8
      name Head
      direction 0.000000 1.000000 0.000000
      length 4.527550
      axis 0.0 0.0 0.0 xyz
      dof rx ry rz
   end
   begin
      id 9
      name LeftShoulder
      direction 1.000000 0.000000 0.000000
      length 6.996006
      axis 0.0 0.0 -90.0 xyz
      dof rx ry rz
   end
   begin
      id 10
      name LeftArm
      direction 1.000000 0.000000 0.000000
      length 10.209302
      axis 0.0 0.0 -90.0 xyz
      dof rx ry rz
   end
   begin
      id 11
      name LeftForeArm
      direction 1.000000 0.000000 0.000000
      length 8.563163
      axis 0.0 0.0 -90.0 xyz
      dof ry rz rx
   end
   begin
      id 12
      name LeftHand
      direction 0.000000 0.000000 0.000000
      length 0.000000
      axis 0.0 0.0 -90.0 xyz
      dof rx ry rz
   end
   begin
      id 13
      name LeftHand_dum1
      direction 0.000000 0.000000 0.000000
      length 0.000000
      axis 0.0 0.0 -90.0 xyz
   end
   begin
      id 14
      name LeftHand_dum2
      direction 1.000000 0.000000 0.000000
      length 3.937000
      axis 0.0 0.0 -90.0 xyz
   end
   begin
      id 15
      name LeftHandThumb1
      direction 0.000000 0.000000 1.000000
      length 3.937000
      axis 0.0 0.0 -90.0 xyz
      dof rx rz ry
   end
   begin
      id 16
      name RightShoulder
      direction -1.000000 0.000000 0.000000
      length 6.996006
      axis 0.0 0.0 90.0 xyz
      dof rx ry rz
   end
   begin
      id 17
      name RightArm
      direction -1.000000 0.000000 0.000000
      length 10.209302
      axis 0.0 0.0 90.0 xyz
      dof rx ry rz
   end
   begin
      id 18
      name RightForeArm
      direction -1.000000 0.000000 0.000000
      length 8.563163
      axis 0.0 0.0 90.0 xyz
      dof ry rz rx
   end
   begin
      id 19
      name RightHand
      direction 0.000000 0.000000 0.000000
      length 0.000000
      axis 0.0 0.0 90.0 xyz
      dof rx ry rz
   end
   begin
      id 20
      name RightHand_dum1
      direction 0.000000 0.000000 0.000000
      length 0.000000
      axis 0.0 0.0 90.0 xyz
   end
   begin
      id 21
      name RightHand_dum2
      direction -1.000000 0.000000 0.000000
      length 3.937000
      axis 0.0 0.0 90.0 xyz
   end
   begin
      id 22
      name RightHandThumb1
      direction 0.000000 0.000000 1.000000
      length 3.937000
      axis 0.0 0.0 90.0 xyz
      dof rx rz ry
   end
   begin
      id 23
      name LeftUpLeg
      direction 0.000000 -1.000000 0.000000
      length 16.346831
      axis 0.0 0.0 0.0 xyz
      dof rx ry rz
   end
   begin
      id 24
      name LeftLeg
      direction 0.000000 -1.000000 0.000000
      length 13.959795
      axis 0.0 0.0 0.0 xyz
      dof rx ry rz
   end
   begin
      id 25
      name LeftFoot
      direction 0.000000 -0.258819 0.965926
      length 5.165550
      axis 15.0 0.0 0.0 xyz
      dof rx ry rz
   end
   begin
      id 26
      name LeftToeBase
      direction 0.000000 0.000000 1.000000
      length 2.952750
      axis 0.0 0.0 0.0 xyz
      dof rx ry rz
   end
   begin
      id 27
      name RightUpLeg
      direction 0.000000 -1.000000 0.000000
      length 16.346831
      axis 0.0 0.0 0.0 xyz
      dof rx ry rz
   end
   begin
      id 28
      name RightLeg
      direction 0.000000 -1.000000 0.000000
      length 13.959795
      axis 0.0 0.0 0.0 xyz
      dof rx ry rz
   end
   begin
      id 29
      name RightFoot
      direction 0.000000 -0.258819 0.965926
      length 5.165550
      axis 15.0 0.0 0.0 xyz
      dof rx ry rz
   end
   begin
      id 30
      name RightToeBase
      direction 0.000000 0.000000 1.000000
      length 2.952750
      axis 0.0 0.0 0.0 xyz
      dof rx ry rz
   end
:hierarchy
   begin
      root Spine_dum LeftUpLeg_dum RightUpLeg_dum
      Spine_dum Spine
      LeftUpLeg_dum LeftUpLeg
      RightUpLeg_dum RightUpLeg
      Spine Spine_dum1 Spine_dum2 Spine_dum3
      Spine_dum1 Head
      Spine_dum2 LeftShoulder
      Spine_dum3 RightShoulder
      LeftShoulder LeftArm
      LeftArm LeftForeArm
      LeftForeArm LeftHand
      LeftHand LeftHand_dum1 LeftHand_dum2
      LeftHand_dum1 LeftHandThumb1
      RightShoulder RightArm
      RightArm RightForeArm
      RightForeArm RightHand
      RightHand RightHand_dum1 RightHand_dum2
      RightHand_dum1 RightHandThumb1
      LeftUpLeg LeftLeg
      LeftLeg LeftFoot
      LeftFoot LeftToeBase
      RightUpLeg RightLeg
      RightLeg RightFoot
      RightFoot RightToeBase
   end

# File created by Blade
# Date/Time:  Tue Jan 27 19:05:02 2015
# Frame Rate: 120.000 fps
#------------------------------------------------------
:FULLY-SPECIFIED
:DEGREES
1107
root -2.749363 31.498290 -4.362734 5.316361 5.717061 0.750393
Spine -5.234819 -6.093390 -4.039513
Head 18.548427 1.244928 2.695068
LeftShoulder -18.269298 16.574700 12.893596
LeftArm 13.281656 -46.761251 -72.919142
LeftForeArm -9.652924 -0.000000 91.131404
LeftHand -10.704434 -0.000000 19.115939
LeftHandThumb1 -26.253704 0.000000 33.147579
RightShoulder -13.340362 -4.372583 -11.006359
RightArm 6.514518 -34.316391 86.089858
RightForeArm -24.155390 -0.000000 21.717443
RightHand -14.396205 -0.000000 10.137493
RightHandThumb1 -24.326973 -0.000000 -32.862282
LeftUpLeg -5.621525 -12.201850 -8.963273
LeftLeg 15.380715 -0.000000 -0.000000
LeftFoot -24.084362 23.167335 -11.315854
LeftToeBase 10.313403 -0.000000 -0.000000
RightUpLeg -20.540357 -11.230656 0.989025
RightLeg 101.017805 -0.000000 -0.000000
RightFoot -17.971154 -10.528281 22.603578
RightToeBase 2.235302 -0.000000 -0.000000
1108
root -2.751770 31.498757 -4.356429 5.326169 5.669147 0.752634
Spine -5.269541 -6.066153 -4.053892
Head 18.656314 1.256208 2.721872
LeftShoulder -18.271681 16.536086 12.876028
LeftArm 13.343669 -46.695681 -72.913377
LeftForeArm -9.625305 -0.000000 91.164793
LeftHand -10.790792 -0.000000 19.176928
LeftHandThumb1 -26.253704 0.000000 33.147579
RightShoulder -13.333054 -4.339922 -11.007399
RightArm 6.493386 -34.365088 86.118698
RightForeArm -24.113493 -0.000000 21.541374
RightHand -14.341860 -0.000000 10.257527
RightHandThumb1 -24.326973 -0.000000 -32.862282
LeftUpLeg -5.605905 -12.205079 -8.964483
LeftLeg 15.347292 -0.000000 -0.000000
LeftFoot -24.110803 23.196056 -11.374088
LeftToeBase 10.302760 -0.000000 -0.000000
RightUpLeg -20.543768 -11.231803 1.020026
RightLeg 101.090314 -0.000000 -0.000000
RightFoot -17.939445 -10.561087 22.683373
RightToeBase 2.242015 -0.000000 -0.000000
1109
root -2.755611 31.499496 -4.349207 5.334472 5.624847 0.755126
Spine -5.306158 -6.042382 -4.075490
Head 18.771808 1.259733 2.752947
LeftShoulder -18.298707 16.580248 12.866315
LeftArm 13.529873 -46.604304 -73.044139
LeftForeArm -9.480737 0.000000 91.171022
LeftHand -10.732697 0.000000 19.164868
LeftHandThumb1 -26.253704 0.000000 33.147579
RightShoulder -13.334996 -4.341558 -10.993336
RightArm 6.504126 -34.408316 86.135223
RightForeArm -24.066450 -0.000000 21.355072
RightHand -14.279736 -0.000000 10.273107
RightHandThumb1 -24.326973 -0.000000 -32.862282
LeftUpLeg -5.598174 -12.160524 -8.959063
LeftLeg 15.336018 -0.000000 -0.000000
LeftFoot -24.107987 23.176505 -11.369962
LeftToeBase 10.298011 -0.000000 -0.000000
RightUpLeg -20.544520 -11.226799 1.058795
RightLeg 101.141353 -0.000000 -0.000000
RightFoot -17.928253 -10.592549 22.754031
RightToeBase 2.336999 -0.000000 -0.000000
1110
root -2.758774 31.500194 -4.343009 5.348542 5.589720 0.756458
Spine -5.345497 -6.039861 -4.086680
Head 18.876556 1.274344 2.757052
LeftShoulder -18.307817 16.566126 12.851768
LeftArm 13.568443 -46.498335 -73.027638
LeftForeArm -9.269585 -0.000000 91.215816
LeftHand -10.864399 0.000000 19.326704
LeftHandThumb1 -26.253704 0.000000 33.147579
RightShoulder -13.321828 -4.328237 -10.993570
RightArm 6.494954 -34.439678 86.172707
RightForeArm -24.073564 -0.000000 21.175097
RightHand -14.320777 -0.000000 10.278598
RightHandThumb1 -24.326973 -0.000000 -32.862282
LeftUpLeg -5.594230 -12.115736 -8.953703
LeftLeg 15.314747 -0.000000 -0.000000
LeftFoot -24.101023 23.164652 -11.354395
LeftToeBase 10.285442 -0.000000 -0.000000
RightUpLeg -20.554817 -11.234825 1.088441
RightLeg 101.170605 -0.000000 -0.000000
RightFoot -17.911941 -10.582339 22.763771
RightToeBase 2.353990 -0.000000 -0.000000
1111
root -2.761202 31.500838 -4.337203 5.368091 5.550567 0.762037
Spine -5.385271 -6.037056 -4.099997
Head 18.959032 1.295391 2.776150
LeftShoulder -18.331975 16.555791 12.828390
LeftArm 13.630654 -46.413719 -73.025177
LeftForeArm -9.222530 -0.000000 91.253032
LeftHand -10.903057 0.000000 19.345200
LeftHandThumb1 -26.253704 0.000000 33.147579
RightShoulder -13.322050 -4.323252 -10.992164
RightArm 6.497409 -34.483200 86.197709
RightForeArm -24.034682 -0.000000 21.012922
RightHand -14.378699 -0.000000 10.316832
RightHandThumb1 -24.326973 -0.000000 -32.862282
LeftUpLeg -5.590046 -12.095538 -8.954819
LeftLeg 15.282566 -0.000000 -0.000000
LeftFoot -24.091684 23.187285 -11.359415
LeftToeBase 10.294347 -0.000000 -0.000000
RightUpLeg -20.571112 -11.229060 1.111868
RightLeg 101.181002 -0.000000 -0.000000
RightFoot -17.882300 -10.522522 22.768570
RightToeBase 2.308638 -0.000000 -0.000000
1112
root -2.765834 31.501288 -4.330707 5.374651 5.522721 0.755869
Spine -5.414984 -6.045029 -4.105940
Head 19.049572 1.327899 2.795044
LeftShoulder -18.320242 16.513319 12.806292
LeftArm 13.615599 -46.383907 -72.957423
LeftForeArm -9.152001 -0.000000 91.312593
LeftHand -10.948464 -0.000000 19.226451
LeftHandThumb1 -26.253704 0.000000 33.147579
RightShoulder -13.308800 -4.311818 -10.990583
RightArm 6.468855 -34.483968 86.242266
RightForeArm -24.022101 -0.000000 20.870409
RightHand -14.358220 -0.000000 10.405584
RightHandThumb1 -24.326973 -0.000000 -32.862282
LeftUpLeg -5.584860 -12.046720 -8.943031
LeftLeg 15.276274 -0.000000 -0.000000
LeftFoot -24.100807 23.168201 -11.355499
LeftToeBase 10.254907 -0.000000 -0.000000
RightUpLeg -20.571989 -11.221625 1.146840
RightLeg 101.170187 -0.000000 -0.000000
RightFoot -17.848524 -10.433960 22.807905
RightToeBase 2.325133 -0.000000 -0.000000
1113
root -2.768527 31.501958 -4.324175 5.380426 5.498141 0.758119
Spine -5.436978 -6.061600 -4.115510
Head 19.125123 1.365522 2.803659
LeftShoulder -18.333945 16.496865 12.776974
LeftArm 13.688323 -46.344761 -72.971216
LeftForeArm -9.118726 -0.000000 91.357321
LeftHand -11.046970 -0.000000 19.250097
LeftHandThumb1 -26.253704 0.000000 33.147579
RightShoulder -13.290647 -4.303634 -10.993114
RightArm 6.432186 -34.482620 86.293460
RightForeArm -23.972647 -0.000000 20.744223
RightHand -14.360328 -0.000000 10.349950
RightHandThumb1 -24.326973 -0.000000 -32.862282
LeftUpLeg -5.574509 -12.006479 -8.940387
LeftLeg 15.263486 -0.000000 -0.000000
LeftFoot -24.089996 23.141780 -11.347645
LeftToeBase 10.212043 -0.000000 -0.000000
RightUpLeg -20.572751 -11.211714 1.169315
RightLeg 101.148288 -0.000000 -0.000000
RightFoot -17.808147 -10.405724 22.741469
RightToeBase 2.270116 -0.000000 -0.000000
1114
root -2.770499 31.501854 -4.318102 5.389312 5.486938 0.768686
Spine -5.462058 -6.098944 -4.127372
Head 19.197231 1.415499 2.802631
LeftShoulder -18.357289 16.508090 12.755082
LeftArm 13.784525 -46.296174 -73.026326
LeftForeArm -9.110862 -0.000000 91.385448
LeftHand -11.048065 0.000000 19.208349
LeftHandThumb1 -26.253704 0.000000 33.147579
RightShoulder -13.260459 -4.317756 -11.002012
RightArm 6.407800 -34.462838 86.343119
RightForeArm -23.974422 -0.000000 20.641716
RightHand -14.386945 -0.000000 10.321382
RightHandThumb1 -24.326973 -0.000000 -32.862282
LeftUpLeg -5.571600 -11.974492 -8.947178
LeftLeg 15.263510 -0.000000 -0.000000
LeftFoot -24.097496 23.108194 -11.355129
LeftToeBase 10.282365 -0.000000 -0.000000
RightUpLeg -20.578596 -11.201141 1.178480
RightLeg 101.119486 -0.000000 -0.000000
RightFoot -17.755402 -10.271102 22.956488
RightToeBase 2.158886 -0.000000 -0.000000
1115
root -2.773769 31.501407 -4.312001 5.399746 5.468815 0.774190
Spine -5.484281 -6.103964 -4.143256
Head 19.251158 1.439059 2.804647
LeftShoulder -18.342301 16.471926 12.766772
LeftArm 13.795831 -46.241989 -73.025746
LeftForeArm -9.000353 -0.000000 91.421441
LeftHand -11.065931 -0.000000 19.193967
LeftHandThumb1 -26.253704 0.000000 33.147579
RightShoulder -13.259051 -4.305264 -11.002860
RightArm 6.332370 -34.410135 86.409100
RightForeArm -24.013326 0.000000 20.567690
RightHand -14.373116 -0.000000 10.416162
RightHandThumb1 -24.326973 -0.000000 -32.862282
LeftUpLeg -5.565012 -11.955644 -8.945847
LeftLeg 15.247535 -0.000000 -0.000000
LeftFoot -24.101009 23.105272 -11.339515
LeftToeBase 10.232204 -0.000000 -0.000000
RightUpLeg -20.588537 -11.194642 1.194942
RightLeg 101.088021 -0.000000 -0.000000
RightFoot -17.718494 -10.207501 23.035854
RightToeBase 1.983953 -0.000000 -0.000000
1116
root -2.776697 31.500825 -4.306845 5.414905 5.449792 0.789940
Spine -5.519029 -6.119213 -4.165131
Head 19.349363 1.521885 2.821224
LeftShoulder -18.325040 16.465666 12.774576
LeftArm 13.834113 -46.202853 -73.059025
LeftForeArm -8.920466 -0.000000 91.445418
LeftHand -11.024625 -0.000000 19.188395
LeftHandThumb1 -26.253704 0.000000 33.147579
RightShoulder -13.248710 -4.343756 -11.003019
RightArm 6.326211 -34.399634 86.442817
RightForeArm -24.008354 -0.000000 20.501295
RightHand -14.364149 0.000000 10.519007
RightHandThumb1 -24.326973 -0.000000 -32.862282
LeftUpLeg -5.558005 -11.962358 -8.955905
LeftLeg 15.224248 -0.000000 -0.000000
LeftFoot -24.114107 23.119124 -11.381308
LeftToeBase 10.292257 -0.000000 -0.000000
RightUpLeg -20.611040 -11.175667 1.205922
RightLeg 101.068138 -0.000000 -0.000000
RightFoot -17.710753 -10.150725 23.138587
RightToeBase 1.975875 -0.000000 -0.000000
1117
root -2.778818 31.499730 -4.300818 5.425359 5.430389 0.801790
Spine -5.539845 -6.121263 -4.178140
Head 19.380152 1.541700 2.796472
LeftShoulder -18.333263 16.487499 12.777832
LeftArm 13.983828 -46.174485 -73.209411
LeftForeArm -8.897099 -0.000000 91.449805
LeftHand -10.964716 0.000000 19.091279
LeftHandThumb1 -26.253704 0.000000 33.147579
RightShoulder -13.261114 -4.364498 -11.003599
RightArm 6.291080 -34.378655 86.482619
RightForeArm -23.975758 -0.000000 20.442000
RightHand -14.281023 0.000000 10.610989
RightHandThumb1 -24.326973 -0.000000 -32.862282
LeftUpLeg -5.555043 -11.942718 -8.964336
LeftLeg 15.218030 -0.000000 -0.000000
LeftFoot -24.108010 23.116332 -11.350776
LeftToeBase 10.195412 -0.000000 -0.000000
RightUpLeg -20.626194 -11.163965 1.213957
RightLeg 101.046354 -0.000000 -0.000000
RightFoot -17.728456 -10.118613 23.181620
RightToeBase 1.943063 -0.000000 -0.000000
1118
root -2.781586 31.498780 -4.295642 5.441108 5.428535 0.816784
Spine -5.565952 -6.142562 -4.195591
Head 19.429520 1.581653 2.787970
LeftShoulder -18.323867 16.464809 12.781264
LeftArm 14.013849 -46.110339 -73.219393
LeftForeArm -8.842669 0.000000 91.471701
LeftHand -10.947326 -0.000000 19.167984
LeftHandThumb1 -26.253704 0.000000 33.147579
RightShoulder -13.273946 -4.381969 -11.003670
RightArm 6.256392 -34.377832 86.520891
RightForeArm -23.952935 -0.000000 20.392405
RightHand -14.223281 0.000000 10.625783
RightHandThumb1 -24.326973 -0.000000 -32.862282
LeftUpLeg -5.566764 -11.935695 -8.971586
LeftLeg 15.233528 -0.000000 -0.000000
LeftFoot -24.133211 23.092120 -11.367444
LeftToeBase 10.210332 -0.000000 -0.000000
RightUpLeg -20.649584 -11.164025 1.223821
RightLeg 101.020315 -0.000000 -0.000000
RightFoot -17.751321 -10.086782 23.148108
RightToeBase 2.163244 -0.000000 -0.000000
1119
root -2.783808 31.497606 -4.289214 5.450597 5.411184 0.831756
Spine -5.592280 -6.159948 -4.212264
Head 19.483616 1.609934 2.759068
LeftShoulder -18.318723 16.453511 12.772669
LeftArm 14.061374 -46.080490 -73.240191
LeftForeArm -8.717564 -0.000000 91.496401
LeftHand -11.018231 -0.000000 19.067916
LeftHandThumb1 -26.253704 0.000000 33.147579
RightShoulder -13.270920 -4.424453 -10.997043
RightArm 6.244931 -34.360561 86.546051
RightForeArm -23.942434 -0.000000 20.352449
RightHand -14.185302 0.000000 10.653971
RightHandThumb1 -24.326973 -0.000000 -32.862282
LeftUpLeg -5.568201 -11.903717 -8.983956
LeftLeg 15.242434 -0.000000 -0.000000
LeftFoot -24.126052 23.084134 -11.350841
LeftToeBase 10.155458 -0.000000 -0.000000
RightUpLeg -20.665410 -11.156487 1.229080
RightLeg 101.005308 -0.000000 -0.000000
RightFoot -17.733705 -10.122143 23.019465
RightToeBase 1.851109 -0.000000 -0.000000
